<?xml version="1.0" encoding="utf-8"?>
<!-- Generator: Adobe Illustrator 21.1.0, SVG Export Plug-In . SVG Version: 6.00 Build 0)  -->
<svg version="1.1" id="Layer_1" xmlns="http://www.w3.org/2000/svg" xmlns:xlink="http://www.w3.org/1999/xlink" x="0px" y="0px"
	 viewBox="0 0 1062.5 80.2" style="enable-background:new 0 0 1062.5 80.2;" xml:space="preserve">
<style type="text/css">
	.st0{enable-background:new    ;}
	.st1{fill:#00FF93;}
	.st2{fill:#FFFFFF;}
</style>
<g>
	<g class="st0">
		<path class="st1" d="M0,3c0-0.8,0.3-1.5,0.8-2.1c0.5-0.5,1.2-0.8,2-0.8h47.8c2.9,0,5.7,0.6,8.3,1.7s4.9,2.7,6.9,4.6
			c2,1.9,3.5,4.2,4.7,6.8c1.1,2.6,1.7,5.4,1.7,8.3c0,3.3-0.8,6.4-2.3,9.1c-1.5,2.8-3.5,5.2-5.9,7.1c3.1,2.2,5.7,4.9,7.6,8.1
			s2.9,6.8,2.9,10.8c0,3.2-0.6,6.2-1.9,9.1c-1.2,2.8-2.9,5.3-5,7.4s-4.6,3.8-7.5,5C57.3,79.3,54.2,80,51,80H2.8
			c-0.8,0-1.5-0.3-2-0.8C0.3,78.8,0,78.1,0,77.3V3z M11.9,10.8v58.6h38c3.9,0,7.1-1.3,9.7-3.8c2.5-2.5,3.8-5.6,3.8-9.2
			c0-3.4-1.1-6.4-3.2-9.1c-2.1-2.6-5.1-4-9.1-4H23.4c-0.8,0-1.5-0.3-2-0.8s-0.8-1.2-0.8-2v-4.6c0-0.8,0.3-1.5,0.8-2s1.2-0.8,2-0.8
			h26.3c3.5,0,6.3-1.1,8.3-3.3s3-4.8,3-7.8c0-3.1-1.1-5.7-3.3-7.9s-5-3.3-8.3-3.3C49.4,10.8,11.9,10.8,11.9,10.8z"/>
		<path class="st1" d="M118.1,10.6c0-1.2,0.3-2.5,1-3.7s1.5-2.3,2.5-3.3s2.1-1.8,3.3-2.5c1.2-0.7,2.5-1,3.7-1H191
			c1.2,0,2.5,0.3,3.7,1s2.3,1.5,3.3,2.5s1.8,2.1,2.5,3.3s1,2.5,1,3.7v58.9c0,1.2-0.3,2.5-1,3.7s-1.5,2.4-2.5,3.3
			c-1,1-2.1,1.8-3.3,2.5s-2.5,1-3.7,1h-62.3c-1.2,0-2.5-0.3-3.7-1s-2.4-1.5-3.3-2.5c-1-1-1.8-2.1-2.5-3.3c-0.7-1.2-1-2.5-1-3.7
			L118.1,10.6L118.1,10.6z M130.2,69.4h59.2V10.8h-59.2V69.4z"/>
		<path class="st1" d="M284.7,38.1l35.6,39.5c0.5,0.5,0.8,1.1,0.8,1.7c0,0.5-0.4,0.8-1.1,0.8h-11.8c-0.7,0-1.5-0.4-2.3-1.2
			l-28.7-32.5l-26.5,32.5c-0.3,0.3-0.7,0.6-1.1,0.9c-0.4,0.3-0.8,0.4-1.2,0.4h-10.9c-0.7,0-1.1-0.3-1.1-0.9c0-0.5,0.3-1,0.8-1.6
			l63.4-76.3c0.6-0.8,1.3-1.2,2.2-1.2h10.7c0.8,0,1.2,0.3,1.2,0.9c0,0.3-0.3,0.8-0.8,1.5L284.7,38.1z M237.8,2.6
			c-0.6-0.5-0.8-1.1-0.8-1.7c0-0.5,0.4-0.8,1.1-0.8h11.5c0.7,0,1.5,0.4,2.3,1.2L271.1,23c0.2,0.4,0.3,0.7,0.3,0.9
			c0,0.3-0.1,0.6-0.3,0.8l-5.3,6.7c-0.3,0.3-0.7,0.5-1.1,0.5c-0.3,0-0.6-0.2-0.9-0.5L237.8,2.6z"/>
	</g>
	<g class="st0">
		<path class="st2" d="M442.8,72.3c0-0.8,0.3-1.5,0.9-2.1s1.2-0.9,1.9-0.9H487c1.3,0,2.5-0.5,3.4-1.4s1.4-2.1,1.4-3.4v-49
			c0-1.3-0.5-2.5-1.4-3.4s-2.1-1.4-3.4-1.4h-52.9v66.5c0,0.7-0.3,1.4-0.8,1.9c-0.5,0.6-1.2,0.9-2,0.9H425c-0.7,0-1.4-0.3-1.9-0.9
			c-0.6-0.6-0.9-1.2-0.9-1.9V3c0-0.8,0.3-1.5,0.9-2.1S424.3,0,425,0h63.7c4.2,0,7.8,1.4,10.7,4.3c2.9,2.9,4.3,6.5,4.3,10.7v49.9
			c0,4.2-1.5,7.8-4.4,10.7c-2.9,2.9-6.5,4.3-10.8,4.3h-42.9c-0.7,0-1.4-0.3-1.9-0.9c-0.6-0.6-0.9-1.2-0.9-1.9L442.8,72.3L442.8,72.3
			z"/>
		<path class="st2" d="M559.2,69.4h55c0.7,0,1.4,0.3,1.9,0.9c0.6,0.6,0.9,1.3,0.9,2.1v5c0,0.7-0.3,1.4-0.9,1.9
			c-0.6,0.6-1.2,0.9-1.9,0.9H550c-0.7,0-1.4-0.3-1.9-0.9c-0.6-0.6-0.9-1.2-0.9-1.9V3c0-0.8,0.3-1.5,0.9-2.1c0.6-0.6,1.2-0.9,1.9-0.9
			h63.4c0.8,0,1.5,0.3,2.1,0.9s0.9,1.3,0.9,2.1v5c0,0.7-0.3,1.4-0.9,1.9c-0.6,0.6-1.3,0.9-2.1,0.9h-54.2V69.4z M567.8,35.9
			c0-0.8,0.3-1.5,0.8-2s1.2-0.8,2-0.8h38.9c0.7,0,1.4,0.3,1.9,0.8c0.6,0.5,0.9,1.2,0.9,2v4.8c0,0.8-0.3,1.5-0.9,2
			c-0.6,0.5-1.2,0.8-1.9,0.8h-38.9c-0.8,0-1.5-0.3-2-0.8s-0.8-1.2-0.8-2V35.9z"/>
		<path class="st2" d="M658,2.9c0-0.7,0.3-1.4,0.8-1.9c0.6-0.6,1.2-0.9,2.1-0.9h6.3c0.8,0,1.5,0.3,2.1,0.9s0.8,1.2,0.8,1.9v66.5
			h51.6c0.8,0,1.5,0.3,2.1,0.9s0.9,1.3,0.9,2.1v4.7c0,0.8-0.3,1.5-0.9,2.1c-0.6,0.6-1.3,0.9-2.1,0.9h-60.8c-0.8,0-1.5-0.3-2.1-0.9
			s-0.8-1.3-0.8-2.1L658,2.9L658,2.9z"/>
		<path class="st2" d="M818.9,3c0-2,0.9-2.9,2.8-2.9h6.5c0.7,0,1.4,0.3,1.9,0.9c0.6,0.6,0.9,1.3,0.9,2.1v68.5c0,2.4-0.8,4.4-2.5,6
			c-1.7,1.7-3.7,2.5-6,2.5h-59.2c-2.4,0-4.4-0.8-6-2.5c-1.7-1.7-2.5-3.7-2.5-6V3c0-0.8,0.3-1.5,0.9-2.1c0.6-0.6,1.2-0.9,1.9-0.9h6.5
			c1.9,0,2.8,1,2.8,2.9v66.3H819V3H818.9z"/>
		<path class="st2" d="M919.9,38.1l35.6,39.5c0.5,0.5,0.8,1.1,0.8,1.7c0,0.5-0.4,0.8-1.1,0.8h-11.8c-0.7,0-1.5-0.4-2.3-1.2
			l-28.7-32.5L886,78.8c-0.3,0.3-0.7,0.6-1.1,0.9c-0.4,0.3-0.8,0.4-1.2,0.4h-10.8c-0.7,0-1.1-0.3-1.1-0.9c0-0.5,0.3-1,0.8-1.6
			L936,1.3c0.6-0.8,1.3-1.2,2.2-1.2h10.7c0.8,0,1.2,0.3,1.2,0.9c0,0.3-0.3,0.8-0.8,1.5L919.9,38.1z M873,2.6
			c-0.5-0.5-0.8-1.1-0.8-1.7c0-0.5,0.4-0.8,1.1-0.8h11.5c0.7,0,1.5,0.4,2.3,1.2L906.3,23c0.2,0.4,0.3,0.7,0.3,0.9
			c0,0.3-0.1,0.6-0.3,0.8l-5.3,6.7c-0.3,0.3-0.7,0.5-1.1,0.5c-0.3,0-0.6-0.2-0.9-0.5L873,2.6z"/>
		<path class="st2" d="M1004.7,69.4h55c0.7,0,1.4,0.3,1.9,0.9c0.6,0.6,0.9,1.3,0.9,2.1v5c0,0.7-0.3,1.4-0.9,1.9
			c-0.6,0.6-1.2,0.9-1.9,0.9h-64.2c-0.7,0-1.4-0.3-1.9-0.9c-0.6-0.6-0.9-1.2-0.9-1.9V3c0-0.8,0.3-1.5,0.9-2.1
			c0.6-0.6,1.2-0.9,1.9-0.9h63.4c0.8,0,1.5,0.3,2.1,0.9s0.9,1.3,0.9,2.1v5c0,0.7-0.3,1.4-0.9,1.9c-0.6,0.6-1.3,0.9-2.1,0.9h-54.2
			L1004.7,69.4L1004.7,69.4z M1013.2,35.9c0-0.8,0.3-1.5,0.8-2s1.2-0.8,2-0.8h38.9c0.7,0,1.4,0.3,1.9,0.8c0.6,0.5,0.9,1.2,0.9,2v4.8
			c0,0.8-0.3,1.5-0.9,2s-1.2,0.8-1.9,0.8H1016c-0.8,0-1.5-0.3-2-0.8s-0.8-1.2-0.8-2V35.9z"/>
	</g>
</g>
</svg>
