<?xml version="1.0" encoding="utf-8"?>
<!-- Generator: Adobe Illustrator 22.0.1, SVG Export Plug-In . SVG Version: 6.00 Build 0)  -->
<svg version="1.1" id="Layer_1" xmlns="http://www.w3.org/2000/svg" xmlns:xlink="http://www.w3.org/1999/xlink" x="0px" y="0px"
	 viewBox="0 0 213.1 205" style="enable-background:new 0 0 213.1 205;" xml:space="preserve">
<style type="text/css">
	.st0{fill:#536B6D;}
	.st1{fill:#155263;}
	.st2{fill:#FF6F3C;}
	.st3{fill:#FFC93C;}
	.st4{fill:#FFFFFF;}
	.st5{fill:#1A2326;}
	.st6{fill:#FF9A3C;}
	.st7{fill:#FF4E17;}
</style>
<g>
	<g>
		<rect class="st0" width="187.1" height="205"/>
	</g>
	<g>
		
			<rect x="187.1" y="153.8" transform="matrix(-1 -1.224647e-16 1.224647e-16 -1 400.218 358.75)" class="st1" width="26" height="51.2"/>
		
			<rect x="187.1" y="102.5" transform="matrix(-1 -1.224647e-16 1.224647e-16 -1 400.218 256.2501)" class="st2" width="26" height="51.2"/>
		
			<rect x="187.1" y="51.3" transform="matrix(-1 -1.224647e-16 1.224647e-16 -1 400.218 153.7502)" class="st3" width="26" height="51.2"/>
		
			<rect x="187.1" y="0" transform="matrix(-1 -1.224647e-16 1.224647e-16 -1 400.218 51.2503)" class="st4" width="26" height="51.2"/>
	</g>
	<g>
		<g>
			<path class="st5" d="M161,89.1c0,38.1-30.8,68-68,68s-68-30.8-68-68c0-38.1,30.8-68,68-68S161,51.9,161,89.1z"/>
		</g>
		<g>
			<path class="st6" d="M93,117.5c-16.2,0-29.1-13-29.1-29.1s13-29.1,29.1-29.1s29.1,13,29.1,29.1S109.2,117.5,93,117.5z M93,60
				c-15.4,0-28.3,13-28.3,28.3s13,28.3,28.3,28.3s28.3-13,28.3-28.3S108.4,60,93,60z"/>
		</g>
		<g>
			<path class="st7" d="M93,64.8c-13,0-23.5,10.5-23.5,23.5s10.5,23.5,23.5,23.5s23.5-10.5,23.5-23.5S106,64.8,93,64.8z M93,91.6
				c-1.6,0-3.2-1.6-3.2-3.2s1.6-3.2,3.2-3.2s3.2,1.6,3.2,3.2S94.6,91.6,93,91.6z"/>
		</g>
		<g>
			<polygon class="st3" points="143.2,37.3 116.5,51.1 130.3,64.8 			"/>
		</g>
		<g>
			<circle class="st4" cx="93" cy="88.3" r="3.2"/>
		</g>
	</g>
	<g>
		<path class="st4" d="M20.3,179.9V205h-3.4v-11.4H3.4V205H0v-25.1h3.4v11.2h13.5v-11.2H20.3z"/>
		<path class="st4" d="M52.2,205h-2.6c-0.3,0-0.5-0.1-0.7-0.2s-0.3-0.3-0.4-0.6l-2.3-6.1H34.8l-2.3,6.1c-0.1,0.2-0.2,0.4-0.4,0.6
			c-0.2,0.2-0.4,0.2-0.7,0.2h-2.6l10-25.1h3.4L52.2,205z M45.1,195.7l-3.9-10.2c-0.1-0.3-0.2-0.7-0.4-1.1s-0.3-0.8-0.4-1.3
			c-0.2,0.9-0.5,1.7-0.8,2.4l-3.9,10.2H45.1z"/>
		<path class="st4" d="M77.6,199.5c0.2,0,0.4,0.1,0.5,0.2l1.3,1.5c-1,1.2-2.3,2.1-3.7,2.8c-1.5,0.7-3.2,1-5.3,1
			c-1.8,0-3.4-0.3-4.9-0.9c-1.5-0.6-2.7-1.5-3.8-2.6c-1-1.1-1.8-2.5-2.4-4.1c-0.6-1.6-0.9-3.3-0.9-5.2c0-1.9,0.3-3.6,0.9-5.2
			c0.6-1.6,1.4-2.9,2.5-4.1c1.1-1.1,2.4-2,3.9-2.6s3.2-0.9,5-0.9c1.8,0,3.4,0.3,4.7,0.9c1.4,0.6,2.6,1.3,3.6,2.3l-1.1,1.6
			c-0.1,0.1-0.2,0.2-0.3,0.3s-0.3,0.1-0.4,0.1c-0.2,0-0.5-0.1-0.8-0.3s-0.7-0.5-1.2-0.8c-0.5-0.3-1.1-0.5-1.8-0.8s-1.6-0.3-2.7-0.3
			c-1.3,0-2.5,0.2-3.6,0.7c-1.1,0.4-2,1.1-2.8,2c-0.8,0.9-1.4,1.9-1.8,3.1c-0.4,1.2-0.6,2.6-0.6,4.1c0,1.6,0.2,3,0.7,4.2
			c0.4,1.2,1.1,2.3,1.8,3.1s1.7,1.5,2.7,1.9c1.1,0.4,2.2,0.7,3.4,0.7c0.7,0,1.4,0,2-0.1c0.6-0.1,1.2-0.2,1.7-0.4s1-0.4,1.4-0.7
			s0.9-0.6,1.3-1C77.2,199.6,77.4,199.5,77.6,199.5z"/>
		<path class="st4" d="M91.9,205h-3.4v-25.1h3.4V205z"/>
		<path class="st4" d="M118.9,202.2l0,2.8h-15.5v-25.1h15.5v2.8h-12.1v8.3h9.8v2.7h-9.8v8.6H118.9z"/>
		<path class="st4" d="M149,179.9V205h-1.7c-0.3,0-0.5,0-0.7-0.1c-0.2-0.1-0.4-0.3-0.5-0.5l-14.5-18.9c0,0.3,0,0.6,0.1,0.9
			c0,0.3,0,0.5,0,0.8V205h-3v-25.1h1.8c0.2,0,0.3,0,0.4,0c0.1,0,0.2,0,0.3,0.1c0.1,0,0.2,0.1,0.2,0.2c0.1,0.1,0.2,0.2,0.3,0.3
			l14.5,18.9c0-0.3,0-0.6-0.1-0.9s0-0.6,0-0.8v-17.8H149z"/>
		<path class="st4" d="M182.3,192.5c0,1.9-0.3,3.6-0.9,5.1s-1.4,2.9-2.5,4s-2.4,1.9-3.9,2.5c-1.5,0.6-3.2,0.9-5,0.9h-9.4v-25.1h9.4
			c1.8,0,3.5,0.3,5,0.9c1.5,0.6,2.8,1.5,3.9,2.6s1.9,2.4,2.5,4S182.3,190.6,182.3,192.5z M178.8,192.5c0-1.5-0.2-2.9-0.6-4.1
			c-0.4-1.2-1-2.2-1.8-3.1c-0.8-0.8-1.7-1.5-2.8-1.9s-2.3-0.7-3.7-0.7h-6v19.6h6c1.4,0,2.6-0.2,3.7-0.7s2-1.1,2.8-1.9
			c0.8-0.8,1.4-1.9,1.8-3.1C178.6,195.4,178.8,194,178.8,192.5z"/>
		<path class="st4" d="M212,205h-2.6c-0.3,0-0.5-0.1-0.7-0.2c-0.2-0.2-0.3-0.3-0.4-0.6l-2.3-6.1h-11.3l-2.3,6.1
			c-0.1,0.2-0.2,0.4-0.4,0.6c-0.2,0.2-0.4,0.2-0.7,0.2h-2.6l10-25.1h3.4L212,205z M204.9,195.7l-3.9-10.2c-0.1-0.3-0.2-0.7-0.4-1.1
			s-0.3-0.8-0.4-1.3c-0.2,0.9-0.5,1.7-0.8,2.4l-3.9,10.2H204.9z"/>
	</g>
</g>
</svg>
