<?xml version="1.0" encoding="utf-8"?>
<!-- Generator: Adobe Illustrator 22.0.0, SVG Export Plug-In . SVG Version: 6.00 Build 0)  -->
<svg version="1.1" id="Layer_1" xmlns="http://www.w3.org/2000/svg" xmlns:xlink="http://www.w3.org/1999/xlink" x="0px" y="0px"
	 viewBox="0 0 512 512" style="enable-background:new 0 0 512 512;" xml:space="preserve">
<style type="text/css">
	.st0{fill:#FFFFFF;}
</style>
<g>
	<g>
		<circle class="st0" cx="256" cy="255.8" r="80"/>
	</g>
	<g>
		<path class="st0" d="M177.8,176.9C199,155.7,227.1,144,257,144s58,11.8,79.2,33c13.4,13.4,23,29.6,28.2,47.6h84.1v-113
			c0-26.5-20.5-47-47-47h-288c-26.5,0-49,20.5-49,47v113h85.1C154.8,206.5,164.4,190.3,177.8,176.9z M416.5,147.7
			c0,7.1-5.7,12.8-12.8,12.8h-38.4c-7.1,0-12.8-5.7-12.8-12.8v-38.4c0-7.1,5.7-12.8,12.8-12.8h38.4c7.1,0,12.8,5.7,12.8,12.8V147.7z
			"/>
		<path class="st0" d="M336.2,335.3C315,356.4,286.9,368,257,368s-58-11.5-79.2-32.6c-21.1-21.1-32.8-49.8-32.8-78.8H64.5v143
			c0,26.5,22.5,49,49,49h288c26.5,0,47-22.5,47-49v-143H369C369,285.5,357.3,314.2,336.2,335.3z"/>
	</g>
</g>
</svg>
