<?xml version="1.0" encoding="utf-8"?>
<!-- Generator: Adobe Illustrator 21.1.0, SVG Export Plug-In . SVG Version: 6.00 Build 0)  -->
<svg version="1.1" id="Layer_1" xmlns="http://www.w3.org/2000/svg" xmlns:xlink="http://www.w3.org/1999/xlink" x="0px" y="0px"
	 viewBox="0 0 350 384" style="enable-background:new 0 0 350 384;" xml:space="preserve">
<style type="text/css">
	.st0{fill:#FFFFFF;}
</style>
<g>
	<path class="st0" d="M46,35.2V16c0-8.8-7.2-16-16-16S14,7.2,14,16v21.5C5.5,43.3,0,53,0,64s5.5,20.7,14,26.5V368
		c0,8.8,7.2,16,16,16s16-7.2,16-16V92.8C56.7,87.6,64,76.7,64,64S56.7,40.4,46,35.2z"/>
	<path class="st0" d="M142,228.9V16c0-8.8-7.2-16-16-16s-16,7.2-16,16v211.7c-10.1,5.4-17,16-17,28.3s6.9,22.9,17,28.3V368
		c0,8.8,7.2,16,16,16s16-7.2,16-16v-84.9c9-5.7,15-15.7,15-27.1S151,234.6,142,228.9z"/>
	<path class="st0" d="M238,99.3V16c0-8.8-7.2-16-16-16s-16,7.2-16,16v83.3c-9.6,5.5-16,15.9-16,27.7s6.4,22.2,16,27.7V368
		c0,8.8,7.2,16,16,16s16-7.2,16-16V154.7c9.6-5.5,16-15.9,16-27.7S247.6,104.8,238,99.3z"/>
	<path class="st0" d="M350,319c0-11.8-6.4-22.2-16-27.7V16c0-8.8-7.2-16-16-16s-16,7.2-16,16v275.3c-9.6,5.5-16,15.9-16,27.7
		s6.4,22.2,16,27.7V368c0,8.8,7.2,16,16,16s16-7.2,16-16v-21.3C343.6,341.2,350,330.8,350,319z"/>
</g>
</svg>
