<?xml version="1.0" encoding="utf-8"?>
<!-- Generator: Adobe Illustrator 21.1.0, SVG Export Plug-In . SVG Version: 6.00 Build 0)  -->
<svg version="1.1" id="Layer_1" xmlns="http://www.w3.org/2000/svg" xmlns:xlink="http://www.w3.org/1999/xlink" x="0px" y="0px"
	 viewBox="0 0 419.7 60.4" style="enable-background:new 0 0 419.7 60.4;" xml:space="preserve">
<style type="text/css">
	.st0{opacity:0.939;}
	.st1{fill:#01F18B;stroke:#01F18B;stroke-miterlimit:10;}
	.st2{fill:#C1FFFA;stroke:#C1FFFA;stroke-miterlimit:10;}
	.st3{enable-background:new    ;}
	.st4{fill:#00FF93;}
	.st5{fill:#FFFFFF;}
</style>
<g id="Group_399" transform="translate(-7 -2.637)">
	<g id="logo-slim" transform="translate(35 23)" class="st0">
		<g id="Path_723">
			<path class="st1" d="M-3.9,39.7l-23.6-14.6V-4.2l23.6-14.6v2.1L-25.5-3.2v1l21.6,13.7C-3.9,11.5-3.9,39.7-3.9,39.7z M-25.5,24
				L-6,36.6V12.5L-25.5,1V24z"/>
		</g>
		<g id="Path_724">
			<path class="st2" d="M5.4,11.5L26.9-2.1v-1L5.4-16.8v-2.1L29-4.2v29.3L5.4,39.7V11.5z M26.9,1L7.5,12.5v24.1L27,24L26.9,1z"/>
		</g>
	</g>
</g>
<g class="st3">
	<path class="st4" d="M83.6,23.5c0-0.3,0-0.4,0.1-0.5s0.3-0.3,0.5-0.3h12.5c0.8,0,1.5,0.1,2.1,0.4c0.7,0.3,1.3,0.7,1.7,1.2
		c0.5,0.5,0.9,1.1,1.2,1.7c0.3,0.7,0.4,1.3,0.4,2.1s-0.1,1.6-0.5,2.4c-0.4,0.7-0.9,1.3-1.5,1.9c0.8,0.5,1.5,1.2,2,2.1
		c0.5,0.8,0.8,1.7,0.8,2.8c0,0.8-0.1,1.6-0.5,2.4c-0.3,0.8-0.8,1.3-1.3,1.9c-0.5,0.5-1.2,0.9-1.9,1.3c-0.8,0.3-1.5,0.5-2.4,0.5H84.4
		c-0.3,0-0.4,0-0.5-0.3c-0.1-0.1-0.1-0.3-0.1-0.5V23.5H83.6z M86.6,25.4v15.1h9.9c1.1,0,1.9-0.3,2.5-0.9c0.7-0.7,0.9-1.5,0.9-2.4
		s-0.3-1.6-0.8-2.4c-0.5-0.7-1.3-1.1-2.4-1.1h-7.2c-0.3,0-0.4,0-0.5-0.1s-0.1-0.3-0.1-0.5v-1.2c0-0.3,0-0.4,0.1-0.5s0.3-0.1,0.5-0.1
		h6.8c0.9,0,1.6-0.3,2.1-0.8s0.8-1.2,0.8-2s-0.3-1.5-0.8-2s-1.3-0.8-2.1-0.8h-9.8L86.6,25.4L86.6,25.4z"/>
	<path class="st4" d="M114.3,25.4c0-0.3,0.1-0.7,0.3-0.9c0.1-0.4,0.4-0.7,0.5-0.9c0.3-0.3,0.5-0.4,0.8-0.7c0.3-0.1,0.7-0.3,0.9-0.3
		H133c0.3,0,0.7,0.1,0.9,0.3s0.7,0.4,0.8,0.7c0.1,0.3,0.5,0.5,0.7,0.8c0.1,0.3,0.3,0.7,0.3,0.9v15.2c0,0.3-0.1,0.7-0.3,0.9
		c-0.1,0.3-0.4,0.7-0.7,0.8s-0.5,0.4-0.8,0.7c-0.3,0.1-0.7,0.3-0.9,0.3h-16c-0.3,0-0.7-0.1-0.9-0.3s-0.7-0.4-0.8-0.7
		c-0.3-0.3-0.5-0.5-0.7-0.8c-0.1-0.3-0.3-0.7-0.3-0.9C114.3,40.5,114.3,25.4,114.3,25.4z M117.4,40.6h15.4V25.4h-15.4V40.6z"/>
	<path class="st4" d="M157.5,32.5l9.3,10.1c0.1,0.1,0.3,0.3,0.3,0.4s-0.1,0.3-0.3,0.3h-3.1c-0.1,0-0.4-0.1-0.7-0.3l-7.4-8.4
		l-6.8,8.4c-0.1,0.1-0.1,0.1-0.3,0.3c-0.1,0.1-0.3,0.1-0.3,0.1h-2.8c-0.1,0-0.3-0.1-0.3-0.3s0-0.3,0.1-0.4L161.7,23
		c0.1-0.3,0.4-0.3,0.5-0.3h2.8c0.3,0,0.3,0.1,0.3,0.3s0,0.3-0.1,0.4L157.5,32.5z M145.3,23.3c-0.1-0.1-0.1-0.3-0.1-0.4
		s0.1-0.3,0.3-0.3h3c0.1,0,0.4,0.1,0.7,0.3l5,5.6c0,0.1,0.1,0.1,0.1,0.3c0,0.1,0,0.1-0.1,0.3l-1.3,1.7c-0.1,0.1-0.1,0.1-0.3,0.1
		c-0.1,0-0.1,0-0.3-0.1L145.3,23.3z"/>
</g>
<g class="st3">
	<path class="st5" d="M198.5,41.3c0-0.3,0.1-0.4,0.3-0.5c0.1-0.1,0.3-0.3,0.5-0.3H210c0.4,0,0.7-0.1,0.9-0.4s0.4-0.5,0.4-0.9V26.5
		c0-0.4-0.1-0.7-0.4-0.9c-0.3-0.3-0.5-0.4-0.9-0.4h-13.7v17.2c0,0.1-0.1,0.4-0.1,0.5c-0.1,0.1-0.3,0.3-0.5,0.3h-1.6
		c-0.1,0-0.4-0.1-0.5-0.3c-0.1-0.1-0.3-0.3-0.3-0.5V23.5c0-0.3,0.1-0.4,0.3-0.5c0.1-0.1,0.3-0.3,0.5-0.3h16.5c1.1,0,2,0.4,2.8,1.1
		c0.8,0.8,1.1,1.6,1.1,2.8v12.9c0,1.1-0.4,2-1.2,2.8s-1.7,1.1-2.8,1.1h-11.1c-0.1,0-0.4-0.1-0.5-0.3c-0.1-0.1-0.3-0.3-0.3-0.5
		L198.5,41.3L198.5,41.3z"/>
	<path class="st5" d="M228.7,40.6h14.2c0.1,0,0.4,0.1,0.5,0.3c0.1,0.1,0.3,0.3,0.3,0.5v1.3c0,0.1-0.1,0.4-0.3,0.5
		c-0.1,0.1-0.3,0.3-0.5,0.3h-16.6c-0.1,0-0.4-0.1-0.5-0.3c-0.1-0.1-0.3-0.3-0.3-0.5V23.5c0-0.3,0.1-0.4,0.3-0.5
		c0.1-0.1,0.3-0.3,0.5-0.3h16.5c0.3,0,0.4,0.1,0.5,0.3c0.1,0.1,0.3,0.3,0.3,0.5v1.3c0,0.1-0.1,0.4-0.3,0.5c-0.1,0.1-0.3,0.3-0.5,0.3
		h-14.1L228.7,40.6L228.7,40.6z M231,32c0-0.3,0-0.4,0.3-0.5c0.1-0.1,0.3-0.1,0.5-0.1h10.1c0.1,0,0.4,0,0.5,0.1s0.3,0.3,0.3,0.5v1.2
		c0,0.3-0.1,0.4-0.3,0.5c-0.1,0.1-0.3,0.3-0.5,0.3h-10.1c-0.3,0-0.4,0-0.5-0.3c-0.1-0.1-0.3-0.3-0.3-0.5V32z"/>
	<path class="st5" d="M254.3,23.5c0-0.1,0.1-0.4,0.3-0.5c0.1-0.1,0.3-0.3,0.5-0.3h1.6c0.3,0,0.4,0.1,0.5,0.3
		c0.1,0.1,0.3,0.3,0.3,0.5v17.2H271c0.3,0,0.4,0.1,0.5,0.3c0.1,0.1,0.3,0.3,0.3,0.5v1.2c0,0.3-0.1,0.4-0.3,0.5s-0.3,0.3-0.5,0.3
		h-15.8c-0.3,0-0.4-0.1-0.5-0.3c-0.1-0.1-0.3-0.3-0.3-0.5L254.3,23.5L254.3,23.5z"/>
	<path class="st5" d="M296.1,23.5c0-0.5,0.3-0.8,0.7-0.8h1.7c0.1,0,0.4,0.1,0.5,0.3c0.1,0.1,0.3,0.3,0.3,0.5v17.7
		c0,0.7-0.3,1.2-0.7,1.6c-0.4,0.4-0.9,0.7-1.6,0.7h-15.4c-0.7,0-1.2-0.3-1.6-0.7s-0.7-0.9-0.7-1.6V23.5c0-0.3,0.1-0.4,0.3-0.5
		c0.1-0.1,0.3-0.3,0.5-0.3h1.7c0.5,0,0.7,0.3,0.7,0.8v17.1h13.6V23.5z"/>
	<path class="st5" d="M322.2,32.5l9.3,10.1c0.1,0.1,0.3,0.3,0.3,0.4s-0.1,0.3-0.3,0.3h-3.1c-0.1,0-0.4-0.1-0.7-0.3l-7.4-8.4
		l-6.8,8.4c-0.1,0.1-0.1,0.1-0.3,0.3c-0.1,0.1-0.3,0.1-0.3,0.1h-2.8c-0.1,0-0.3-0.1-0.3-0.3s0-0.3,0.1-0.4L326.4,23
		c0.1-0.3,0.4-0.3,0.5-0.3h2.8c0.3,0,0.3,0.1,0.3,0.3s0,0.3-0.3,0.4L322.2,32.5z M310,23.3c-0.1-0.1-0.1-0.3-0.1-0.4
		s0.1-0.3,0.3-0.3h3c0.1,0,0.4,0.1,0.7,0.3l5,5.6c0,0.1,0.1,0.1,0.1,0.3c0,0.1,0,0.1-0.1,0.3l-1.3,1.7c-0.1,0.1-0.1,0.1-0.3,0.1
		s-0.1,0-0.3-0.1L310,23.3z"/>
	<path class="st5" d="M344.2,40.6h14.4c0.1,0,0.4,0.1,0.5,0.3s0.3,0.3,0.3,0.5v1.3c0,0.1-0.1,0.4-0.3,0.5s-0.3,0.3-0.5,0.3h-16.8
		c-0.1,0-0.4-0.1-0.5-0.3c-0.1-0.1-0.3-0.3-0.3-0.5V23.5c0-0.3,0.1-0.4,0.3-0.5c0.1-0.1,0.3-0.3,0.5-0.3h16.5c0.3,0,0.4,0.1,0.5,0.3
		c0.1,0.1,0.3,0.3,0.3,0.5v1.3c0,0.1-0.1,0.4-0.3,0.5c-0.1,0.1-0.3,0.3-0.5,0.3h-14.1V40.6z M346.5,32c0-0.3,0-0.4,0.3-0.5
		c0.1-0.1,0.3-0.1,0.5-0.1h10.1c0.1,0,0.4,0,0.5,0.1s0.3,0.3,0.3,0.5v1.2c0,0.3-0.1,0.4-0.3,0.5c-0.1,0.1-0.3,0.3-0.5,0.3h-10.2
		c-0.3,0-0.4,0-0.5-0.3c-0.1-0.1-0.3-0.3-0.3-0.5V32H346.5z"/>
</g>
</svg>
