<?xml version="1.0" encoding="utf-8"?>
<!-- Generator: Adobe Illustrator 21.1.0, SVG Export Plug-In . SVG Version: 6.00 Build 0)  -->
<svg version="1.1" id="Layer_1" xmlns="http://www.w3.org/2000/svg" xmlns:xlink="http://www.w3.org/1999/xlink" x="0px" y="0px"
	 viewBox="0 0 159.9 448" style="enable-background:new 0 0 159.9 448;" xml:space="preserve">
<style type="text/css">
	.st0{fill:#FFFFFF;}
</style>
<g>
	<path class="st0" d="M80.4,0C45.3,0.1,14.6,23.2,3.6,59.3c-5.6,18.5-3.5,44.8-1.2,54.5s7.3,19.9,13.2,28.3
		c2.8,4.2,6.7,7.4,11.2,9.2c0.6,0.3,1.3,0.5,2,0.8c3.3,1.1,6.5,2.2,10.1,3.1c11.8,3,27.1,4.7,41.1,4.8l0,0c0,0,0.6,0,0.7,0
		c0.3,0,0.3,0,1.3,0v-0.1c14-0.1,27.3-1.7,39.1-4.8c3.6-0.9,6.9-2,10.2-3.1c0.7-0.2,1.3-0.5,1.9-0.8c4.5-1.8,8.4-5,11.2-9.2
		c5.9-8.4,10.8-18.6,13.2-28.3c2.3-9.7,4.4-36-1.2-54.5C145.4,23.2,115.6,0.1,80.4,0z"/>
	<path class="st0" d="M119.3,169.1c-0.4,0-0.7,0-1.1,0.1c-0.6,0.1-1.3,0.3-1.9,0.4c-2,0.4-4.1,0.8-6.1,1.2c-9.2,1.5-18.9,2.3-29,2.4
		c-10.1-0.1-22.3-0.9-31-2.4c-2.1-0.4-4.2-0.8-6.2-1.2c-0.6-0.1-1.3-0.3-1.9-0.4c-0.4-0.1-0.8-0.1-1.1-0.1c-6.1,0-11,5.3-11.2,11.9
		c0.1,0.8,0.2,1.6,0.2,2.4c4.8,67.2,16.8,240.7,18.2,252c0,0,2.8,12.7,32.1,12.6l0,0c29.2,0.1,32.1-12.6,32.1-12.6
		c1.4-11.3,13.4-184.8,18.2-252c0-0.8,0.1-1.6,0.2-2.4C130.3,174.4,125.4,169.1,119.3,169.1z M90,249.7c0,6-4.5,10.9-10,10.9
		s-10-4.9-10-10.9V217c0-6,4.5-10.9,10-10.9S90,211,90,217V249.7z"/>
</g>
</svg>
